<svg width="36" height="50" viewBox="0 0 36 50" fill="none" xmlns="http://www.w3.org/2000/svg">
<mask id="mask0_1743_772" style="mask-type:luminance" maskUnits="userSpaceOnUse" x="0" y="0" width="36" height="50">
<path d="M35.7475 0H0V50H35.7475V0Z" fill="white"/>
</mask>
<g mask="url(#mask0_1743_772)">
<path d="M30.2301 4.05829H27.7959C26.9183 4.05829 26.207 4.76965 26.207 5.64716V14.4954C26.207 15.3729 26.9183 16.0842 27.7959 16.0842H30.2301C31.1077 16.0842 31.819 15.3729 31.819 14.4954V5.64716C31.819 4.76965 31.1077 4.05829 30.2301 4.05829Z" fill="white"/>
<path d="M21.1289 49.1963V40.814H31.4474L22.4976 49.764C22.3855 49.8763 22.2425 49.9526 22.0869 49.9835C21.9313 50.0143 21.77 49.9985 21.6235 49.9378C21.477 49.877 21.3517 49.774 21.2637 49.642C21.1757 49.5102 21.1287 49.355 21.1289 49.1963Z" fill="white"/>
<path d="M32.0002 40.2931H21.1289V41.2978H30.9433L32.0002 40.2931Z" fill="#D0D0D0"/>
<path d="M34.2349 15.4746L19.3855 0.623816C18.9839 0.22421 18.4404 -0.00012207 17.8738 -0.00012207C17.3073 -0.00012207 16.7638 0.22421 16.3622 0.623816L1.51301 15.4746C0.606871 16.4824 0.0729462 17.77 0 19.1233V21.7392C8.11265 27.775 17.9587 31.0272 28.0703 31.011C30.6419 31.0115 33.2093 30.8024 35.747 30.386V19.1233C35.6732 17.7704 35.1399 16.4831 34.2349 15.4746Z" fill="white"/>
<path d="M28.0703 33.4161C17.9587 33.4322 8.1127 30.1799 0 24.1443V38.2749C0.00183501 38.8414 0.227654 39.384 0.628165 39.7844C1.02867 40.185 1.57135 40.4108 2.13775 40.4126H33.6095C34.1758 40.4108 34.7184 40.1848 35.119 39.7844C35.5194 39.3838 35.7451 38.8411 35.747 38.2749V32.7912C33.2093 33.2076 30.6419 33.4166 28.0703 33.4161Z" fill="white"/>
</g>
</svg>
